<svg width="18" height="18" viewBox="0 0 18 18" fill="none" xmlns="http://www.w3.org/2000/svg">
<path d="M13.6393 1.91699H3.72266C3.15907 1.91699 2.61857 2.14088 2.22005 2.53939C1.82154 2.93791 1.59766 3.47841 1.59766 4.04199V13.9587C1.59766 14.5222 1.82154 15.0627 2.22005 15.4613C2.61857 15.8598 3.15907 16.0837 3.72266 16.0837H13.6393C14.2029 16.0837 14.7434 15.8598 15.1419 15.4613C15.5404 15.0627 15.7643 14.5222 15.7643 13.9587V4.04199C15.7643 3.47841 15.5404 2.93791 15.1419 2.53939C14.7434 2.14088 14.2029 1.91699 13.6393 1.91699Z" fill="#EEAB00"/>
<path fill-rule="evenodd" clip-rule="evenodd" d="M3.66982 7.48926L3.09375 10.8826H4.11568L4.3514 9.3088L4.96425 10.8826H5.42367L6.07418 9.29658L6.31173 10.8826H8.39916L8.59041 10.3259H9.64557L9.83682 10.8826H11.8769L12.5745 9.91308L13.1696 10.8826H14.4195L13.1594 9.08003L14.2847 7.48926H13.0223L12.5468 8.22512L12.1619 7.48926H10.8996L11.9597 9.07714L10.8288 10.6182L9.63785 7.48926H8.59814L7.32528 10.8333L6.75759 7.48926H5.78776L5.21553 9.02283L4.63949 7.48926H3.66982ZM3.2061 10.7882L3.75005 7.58398H4.57418L4.57408 7.5837H3.74958L3.20558 10.7882H3.2061ZM4.31095 8.94466L5.02883 10.7882H5.0292L4.31105 8.94398L4.31095 8.94466ZM6.11699 8.94476L6.39308 10.7882H6.39351L6.1173 8.94398L6.11699 8.94476ZM6.67788 7.58398L6.67783 7.5837H5.85333L5.21601 9.29171L5.2163 9.29248L5.85381 7.58398H6.67788ZM7.44408 10.7882L8.66372 7.58398H9.57285L9.57274 7.5837H8.66324L7.44349 10.7882H7.44408ZM9.71309 10.2317L9.90424 10.7882H9.90462L9.71347 10.2317H9.71309ZM10.8219 10.7882L12.0754 9.07998L11.0767 7.58398H12.1049L12.1047 7.5837H11.0762L12.075 9.0797L10.8212 10.7882H10.8219ZM12.581 9.74321L13.2225 10.7882H13.2228L12.5812 9.74298L12.581 9.74321ZM14.102 7.58398L14.1022 7.5837H13.0737L12.5384 8.41217L12.5387 8.41273L13.0742 7.58398H14.102ZM9.11828 8.53227L9.11847 8.53173L9.49247 9.59848H8.74447L8.74457 9.5982H9.49199L9.11828 8.53227ZM8.87719 9.50376L9.11799 8.81691L9.3588 9.50376H8.87719Z" fill="#252246"/>
</svg>
