<svg width="5" height="5" viewBox="0 0 18 16" fill="none" xmlns="http://www.w3.org/2000/svg">
<path d="M17.9073 12.6149L14.9359 15.7821C14.8713 15.8509 14.7931 15.9057 14.7063 15.9432C14.6194 15.9807 14.5257 16.0001 14.4311 16H0.344964C0.277751 16 0.212003 15.9805 0.155798 15.9439C0.0995933 15.9072 0.0553794 15.8551 0.028589 15.7938C0.00179863 15.7325 -0.00640125 15.6648 0.00499691 15.599C0.016395 15.5332 0.0468946 15.4721 0.0927485 15.4232L3.06643 12.256C3.13086 12.1874 3.20876 12.1326 3.29532 12.0952C3.3819 12.0577 3.47528 12.0383 3.56972 12.0381H17.655C17.7222 12.0381 17.788 12.0576 17.8442 12.0942C17.9004 12.1309 17.9446 12.183 17.9715 12.2443C17.9982 12.3056 18.0064 12.3733 17.995 12.4391C17.9836 12.5049 17.9531 12.566 17.9073 12.6149ZM14.9359 6.23695C14.8713 6.16815 14.7931 6.11329 14.7063 6.0758C14.6194 6.03833 14.5257 6.019 14.4311 6.01905H0.344964C0.277751 6.01905 0.212003 6.03856 0.155798 6.0752C0.0995933 6.11184 0.0553794 6.16398 0.028589 6.22524C0.00179863 6.28651 -0.00640125 6.35422 0.00499691 6.42005C0.016395 6.48587 0.0468946 6.54696 0.0927485 6.59582L3.06643 9.76305C3.13086 9.83167 3.20876 9.8864 3.29532 9.92389C3.3819 9.96136 3.47528 9.9808 3.56972 9.98095H17.655C17.7222 9.98095 17.788 9.96144 17.8442 9.9248C17.9004 9.88816 17.9446 9.83602 17.9715 9.77476C17.9982 9.71349 18.0064 9.64578 17.995 9.57995C17.9836 9.51413 17.9531 9.45304 17.9073 9.40418L14.9359 6.23695ZM0.344964 3.96191H14.4311C14.5257 3.96195 14.6194 3.94264 14.7063 3.90515C14.7931 3.86765 14.8713 3.8128 14.9359 3.744L17.9073 0.576762C17.9531 0.527922 17.9836 0.466833 17.995 0.401C18.0064 0.335167 17.9982 0.26746 17.9715 0.206196C17.9446 0.144933 17.9004 0.0927811 17.8442 0.0561496C17.788 0.019518 17.7222 2.25589e-06 17.655 0H3.56972C3.47528 0.000159709 3.3819 0.0195816 3.29532 0.0570633C3.20876 0.0945451 3.13086 0.149289 3.06643 0.217905L0.093515 3.38515C0.0477055 3.43393 0.0172194 3.49496 0.00579537 3.56071C-0.00562864 3.62647 0.00250617 3.69413 0.0292021 3.75536C0.055898 3.8166 0.0999946 3.86875 0.156084 3.90544C0.212174 3.94213 0.277817 3.96175 0.344964 3.96191Z" fill="url(#paint0_linear_384_1094)"/>
<defs>
<linearGradient id="paint0_linear_384_1094" x1="1.51941" y1="16.3813" x2="16.1895" y2="-0.258072" gradientUnits="userSpaceOnUse">
<stop offset="0.08" stop-color="#9945FF"/>
<stop offset="0.3" stop-color="#8752F3"/>
<stop offset="0.5" stop-color="#5497D5"/>
<stop offset="0.6" stop-color="#43B4CA"/>
<stop offset="0.72" stop-color="#28E0B9"/>
<stop offset="0.97" stop-color="#19FB9B"/>
</linearGradient>
</defs>
</svg>
