<svg width="70" height="70" viewBox="0 0 59 58" fill="none" xmlns="http://www.w3.org/2000/svg">
<g filter="url(#filter0_d_384_1136)">
<rect x="13.7344" y="9.39185" width="31.0517" height="30.2162" rx="8" fill="#D5D5D5"/>
<path d="M25.6627 31.5076L24.6116 32.5878L25.6627 33.6107L26.7139 32.5878L25.6627 31.5076ZM27.4628 19.0015C28.2952 19.0015 28.97 18.3267 28.97 17.4943C28.97 16.6618 28.2952 15.987 27.4628 15.987L27.4628 19.0015ZM21.0113 29.0845L24.6116 32.5878L26.7139 30.4274L23.1137 26.924L21.0113 29.0845ZM26.7139 32.5878L30.3141 29.0845L28.2118 26.924L24.6116 30.4274L26.7139 32.5878ZM27.1699 31.5076L27.1699 19.2944L24.1555 19.2944L24.1555 31.5076L27.1699 31.5076ZM27.1699 19.2944C27.1699 19.1326 27.3011 19.0015 27.4628 19.0015L27.4628 15.987C25.6362 15.987 24.1555 17.4678 24.1555 19.2944L27.1699 19.2944Z" fill="#343735"/>
<path d="M32.8619 17.4941L31.8108 16.4139L32.8619 15.3911L33.9131 16.4139L32.8619 17.4941ZM32.8619 30.5832L31.3547 30.5832L31.3547 30.5832L32.8619 30.5832ZM31.0618 33.8905C30.2294 33.8905 29.5546 33.2157 29.5546 32.3833C29.5546 31.5509 30.2294 30.876 31.0618 30.876L31.0618 33.8905ZM28.2106 19.9173L31.8108 16.4139L33.9131 18.5744L30.3129 22.0777L28.2106 19.9173ZM33.9131 16.4139L37.5133 19.9173L35.411 22.0777L31.8108 18.5744L33.9131 16.4139ZM34.3692 17.4941L34.3692 30.5832L31.3547 30.5832L31.3547 17.4941L34.3692 17.4941ZM34.3692 30.5832C34.3692 32.4098 32.8884 33.8905 31.0618 33.8905L31.0618 30.876C31.2236 30.876 31.3547 30.7449 31.3547 30.5832L34.3692 30.5832Z" fill="#343735"/>
</g>
<defs>
<filter id="filter0_d_384_1136" x="0.169159" y="0.348369" width="58.1812" height="57.3467" filterUnits="userSpaceOnUse" color-interpolation-filters="sRGB">
<feFlood flood-opacity="0" result="BackgroundImageFix"/>
<feColorMatrix in="SourceAlpha" type="matrix" values="0 0 0 0 0 0 0 0 0 0 0 0 0 0 0 0 0 0 127 0" result="hardAlpha"/>
<feOffset dy="4.52174"/>
<feGaussianBlur stdDeviation="6.78261"/>
<feComposite in2="hardAlpha" operator="out"/>
<feColorMatrix type="matrix" values="0 0 0 0 0.12549 0 0 0 0 0.109804 0 0 0 0 0.254902 0 0 0 0.32 0"/>
<feBlend mode="normal" in2="BackgroundImageFix" result="effect1_dropShadow_384_1136"/>
<feBlend mode="normal" in="SourceGraphic" in2="effect1_dropShadow_384_1136" result="shape"/>
</filter>
</defs>
</svg>
