<svg width="16" height="16" viewBox="0 0 16 16" fill="none" xmlns="http://www.w3.org/2000/svg">
<path fill-rule="evenodd" clip-rule="evenodd" d="M15.4079 2.99625C15.6199 1.96307 14.6051 1.10447 13.6213 1.48459L1.56181 6.14393C0.463154 6.56841 0.4142 8.10472 1.4836 8.59825L4.10981 9.81039L5.35914 14.183C5.42403 14.4101 5.60426 14.586 5.83292 14.6453C6.06158 14.7045 6.30453 14.6383 6.47156 14.4713L8.39601 12.5468L11.0918 14.5687C11.8743 15.1555 13.0014 14.7281 13.1979 13.7699L15.4079 2.99625ZM2.04234 7.38765L14.1018 2.72832L11.8918 13.502L8.73348 11.1332C8.46808 10.9341 8.09668 10.9605 7.86208 11.1951L7.03781 12.0194L7.28548 10.6573L12.1382 5.80461C12.3744 5.56844 12.3993 5.19396 12.1966 4.92854C11.9939 4.66311 11.6261 4.58867 11.3361 4.75437L4.6343 8.58392L2.04234 7.38765ZM5.45144 9.65265L5.8557 11.0676L6.0109 10.2139C6.03516 10.0805 6.09953 9.95765 6.19542 9.86179L7.67534 8.38192L5.45144 9.65265Z" fill="white"/>
</svg>
