<svg width="19" height="20" viewBox="0 0 19 20" fill="none" xmlns="http://www.w3.org/2000/svg">
<path d="M7.07691 15.5876C5.56403 15.5876 4.15506 15.1207 2.96875 14.3176C3.67037 14.4073 4.38191 14.3504 5.06261 14.1501C5.74331 13.9499 6.37979 13.6103 6.93559 13.1507C6.37618 13.1399 5.83402 12.945 5.38518 12.5934C4.93634 12.2418 4.60335 11.751 4.43294 11.1901C4.59681 11.2238 4.76484 11.2413 4.93644 11.2413C5.18106 11.2413 5.41856 11.2063 5.64478 11.1438C5.03835 11.0145 4.493 10.6686 4.10108 10.1646C3.70917 9.66059 3.49478 9.0295 3.49422 8.37819V8.34131C3.86576 8.5592 4.28154 8.68008 4.70666 8.69381C4.33932 8.43618 4.03822 8.08691 3.8302 7.67711C3.62218 7.2673 3.5137 6.8097 3.51441 6.34506C3.51441 5.83006 3.648 5.34381 3.87778 4.92756C4.55067 5.79904 5.3902 6.51178 6.34182 7.01947C7.29345 7.52717 8.33589 7.81846 9.40144 7.87444C9.26793 7.26963 9.32757 6.63536 9.57113 6.06983C9.81469 5.50431 10.2286 5.03908 10.7487 4.74618C11.2688 4.45329 11.8662 4.34906 12.4483 4.44964C13.0303 4.55022 13.5647 4.85 13.9686 5.30256C14.5684 5.17757 15.1438 4.94638 15.6702 4.61881C15.47 5.27194 15.0517 5.82657 14.4928 6.18006C15.0239 6.11332 15.5426 5.96377 16.0318 5.73631C15.6711 6.30206 15.2184 6.79649 14.6947 7.19694C14.6995 7.31756 14.703 7.43944 14.703 7.56131C14.7024 11.2876 12.0062 15.5882 7.07691 15.5876Z" fill="white"/>
</svg>
