<svg width="16" height="16" viewBox="0 0 16 16" fill="none" xmlns="http://www.w3.org/2000/svg">
<path fill-rule="evenodd" clip-rule="evenodd" d="M10.3856 14.088C10.7488 13.528 11.1128 12.808 11.3744 11.884C11.9784 12.116 12.3928 12.3928 12.6472 12.6112C11.9955 13.2585 11.2148 13.7614 10.356 14.0872H10.3856V14.088ZM3.3456 12.604C3.6144 12.3856 4.0216 12.116 4.6256 11.876C4.8944 12.8072 5.244 13.5272 5.6144 14.0872C4.76827 13.7544 4.00056 13.2493 3.36 12.604H3.3456ZM11.8544 7.2728C11.832 6.6248 11.7664 5.9776 11.6584 5.3384C12.4584 5.0472 13.04 4.6984 13.4472 4.3784C14.015 5.24759 14.3667 6.24001 14.4728 7.2728H11.8544ZM4.676 3.9128C4.25267 3.75683 3.85373 3.54133 3.4912 3.2728C4.10433 2.68644 4.82538 2.22458 5.6144 1.9128C5.2728 2.4216 4.9384 3.076 4.6688 3.9128H4.6768H4.676ZM10.3856 1.9128C11.1751 2.22357 11.8964 2.68555 12.5088 3.2728C12.1458 3.54066 11.747 3.7561 11.324 3.9128C11.1072 3.20391 10.7887 2.53023 10.3784 1.9128H10.3856ZM10.24 5.6944C10.312 6.1744 10.3856 6.6912 10.4 7.2728H5.6C5.6216 6.6912 5.672 6.1672 5.7456 5.6944C7.2296 5.9616 8.7488 5.9616 10.2328 5.6944H10.24ZM8 4.436C7.272 4.436 6.632 4.3784 6.088 4.2912C6.6688 2.5016 7.5712 1.7816 8 1.5272C8.4144 1.7816 9.324 2.5088 9.9056 4.2912C9.27524 4.38992 8.63803 4.43834 8 4.436ZM2.5456 4.3784C3.08941 4.79186 3.6957 5.11593 4.3416 5.3384C4.23363 5.97817 4.16816 6.62438 4.1456 7.2728H1.4976C1.61246 6.23742 1.97435 5.24477 2.5528 4.3784H2.5456ZM1.5056 8.7272H4.1456C4.1744 9.3528 4.2176 9.9272 4.3056 10.4512C3.63555 10.6813 3.01034 11.0256 2.4576 11.4688C1.9345 10.6392 1.60628 9.70188 1.4976 8.7272H1.5056ZM8 9.8912C7.128 9.8912 6.3784 9.9632 5.724 10.08C5.66006 9.63169 5.61868 9.18046 5.6 8.728H10.4C10.3784 9.2144 10.3416 9.672 10.284 10.08C9.53042 9.94377 8.76577 9.87815 8 9.884V9.8912ZM8 14.4728C7.564 14.2112 6.604 13.4328 6.0216 11.4912C6.67551 11.3846 7.33754 11.3359 8 11.3456C8.764 11.3456 9.4184 11.396 9.9856 11.4912C9.404 13.4544 8.444 14.2112 8.0072 14.4728H8ZM13.5416 11.4616C12.9895 11.0178 12.3645 10.6735 11.6944 10.444C11.7821 9.87545 11.8355 9.30216 11.8544 8.7272H14.5024C14.3927 9.69939 14.0637 10.6342 13.5416 11.4616ZM8 0C3.5816 0 0 3.5816 0 8C0 12.4184 3.5816 16 8 16C12.4184 16 16 12.4184 16 8C16 3.5816 12.4184 0 8 0Z" fill="white"/>
</svg>
